<svg xmlns="http://www.w3.org/2000/svg" viewBox="0 0 256 256" width="256" height="256" fill="none"><defs><linearGradient id="da-ramp" gradientUnits="userSpaceOnUse" x1="206.0" y1="34.0" x2="50.0" y2="222.0"><stop offset="0.0" stop-color="#DCF4E6"/><stop offset="0.22" stop-color="#BBECCF"/><stop offset="0.48" stop-color="#71D793"/><stop offset="0.74" stop-color="#41B983"/><stop offset="1.0" stop-color="#267E53"/></linearGradient>
<linearGradient id="da-trail" gradientUnits="userSpaceOnUse" x1="206.0" y1="34.0" x2="50.0" y2="222.0"><stop offset="0.0" stop-color="#41B983" stop-opacity="1.0"/><stop offset="0.55" stop-color="#2E9965" stop-opacity="0.92"/><stop offset="1.0" stop-color="#267E53" stop-opacity="0.55"/></linearGradient>
<linearGradient id="da-rim" gradientUnits="userSpaceOnUse" x1="206.0" y1="34.0" x2="50.0" y2="222.0"><stop offset="0.0" stop-color="#DCF4E6" stop-opacity="0.85"/><stop offset="0.34" stop-color="#BBECCF" stop-opacity="0.3"/><stop offset="0.62" stop-color="#71D793" stop-opacity="0.0"/></linearGradient>
<mask id="da-m0" maskUnits="userSpaceOnUse" x="0" y="0" width="256" height="256"><rect width="256" height="256" fill="#fff"/><rect x="-60.454" y="-60.454" width="120.908" height="120.908" rx="23.814" ry="23.814" transform="translate(125.000 126.000) rotate(-4.000)" fill="#000"/><rect x="-62.600" y="-62.600" width="125.200" height="125.200" rx="24.552" ry="24.552" transform="translate(148.000 106.000) rotate(9.000)" fill="#000"/></mask>
<mask id="da-m1" maskUnits="userSpaceOnUse" x="0" y="0" width="256" height="256"><rect width="256" height="256" fill="#fff"/><rect x="-62.600" y="-62.600" width="125.200" height="125.200" rx="24.552" ry="24.552" transform="translate(148.000 106.000) rotate(9.000)" fill="#000"/></mask></defs><g transform="translate(-43.5150 -43.5150) scale(1.366654)"><g mask="url(#da-m0)" opacity="0.78"><rect x="-48.958" y="-48.958" width="97.916" height="97.916" rx="13.726" ry="13.726" transform="translate(102.000 146.000) rotate(-17.000)" fill="none" stroke="url(#da-trail)" stroke-width="9.5" /></g>
<g mask="url(#da-m1)" opacity="0.92"><rect x="-51.104" y="-51.104" width="102.208" height="102.208" rx="14.464" ry="14.464" transform="translate(125.000 126.000) rotate(-4.000)" fill="none" stroke="url(#da-ramp)" stroke-width="9.5" /></g>
<rect x="-58.000" y="-58.000" width="116.000" height="116.000" rx="19.952" ry="19.952" transform="translate(148.000 106.000) rotate(9.000)" fill="url(#da-ramp)"/>
<rect x="-56.800" y="-56.800" width="113.600" height="113.600" rx="18.752" ry="18.752" transform="translate(148.000 106.000) rotate(9.000)" fill="none" stroke="url(#da-rim)" stroke-width="2.4" /></g></svg>