<svg xmlns="http://www.w3.org/2000/svg" viewBox="0 0 256 256" width="256" height="256" fill="none"><defs><linearGradient id="dac-ramp" gradientUnits="userSpaceOnUse" x1="206.0" y1="34.0" x2="50.0" y2="222.0"><stop offset="0.0" stop-color="#DCF4E6"/><stop offset="0.22" stop-color="#BBECCF"/><stop offset="0.48" stop-color="#71D793"/><stop offset="0.74" stop-color="#41B983"/><stop offset="1.0" stop-color="#267E53"/></linearGradient>
<linearGradient id="dac-trail" gradientUnits="userSpaceOnUse" x1="206.0" y1="34.0" x2="50.0" y2="222.0"><stop offset="0.0" stop-color="#41B983" stop-opacity="1.0"/><stop offset="0.55" stop-color="#2E9965" stop-opacity="0.92"/><stop offset="1.0" stop-color="#267E53" stop-opacity="0.55"/></linearGradient>
<linearGradient id="dac-rim" gradientUnits="userSpaceOnUse" x1="206.0" y1="34.0" x2="50.0" y2="222.0"><stop offset="0.0" stop-color="#DCF4E6" stop-opacity="0.85"/><stop offset="0.34" stop-color="#BBECCF" stop-opacity="0.3"/><stop offset="0.62" stop-color="#71D793" stop-opacity="0.0"/></linearGradient>
<mask id="dac-m0" maskUnits="userSpaceOnUse" x="0" y="0" width="256" height="256"><rect width="256" height="256" fill="#fff"/><rect x="-62.854" y="-62.854" width="125.708" height="125.708" rx="26.214" ry="26.214" transform="translate(125.000 126.000) rotate(-4.000)" fill="#000"/><rect x="-65.000" y="-65.000" width="130.000" height="130.000" rx="26.952" ry="26.952" transform="translate(148.000 106.000) rotate(9.000)" fill="#000"/></mask>
<mask id="dac-m1" maskUnits="userSpaceOnUse" x="0" y="0" width="256" height="256"><rect width="256" height="256" fill="#fff"/><rect x="-65.000" y="-65.000" width="130.000" height="130.000" rx="26.952" ry="26.952" transform="translate(148.000 106.000) rotate(9.000)" fill="#000"/></mask></defs><g transform="translate(-43.5150 -43.5150) scale(1.366654)"><g mask="url(#dac-m0)" opacity="1.0"><rect x="-47.208" y="-47.208" width="94.416" height="94.416" rx="11.976" ry="11.976" transform="translate(102.000 146.000) rotate(-17.000)" fill="none" stroke="url(#dac-trail)" stroke-width="13.0" /></g>
<g mask="url(#dac-m1)" opacity="1.0"><rect x="-49.354" y="-49.354" width="98.708" height="98.708" rx="12.714" ry="12.714" transform="translate(125.000 126.000) rotate(-4.000)" fill="none" stroke="url(#dac-ramp)" stroke-width="13.0" /></g>
<rect x="-58.000" y="-58.000" width="116.000" height="116.000" rx="19.952" ry="19.952" transform="translate(148.000 106.000) rotate(9.000)" fill="url(#dac-ramp)"/></g></svg>